# xmcd CD database file
#
# Track frame offsets:
#	150
#	31821
#	64529
#	106783
#	128706
#	169154
#	205630
#	234864
#	265037
#	304614
#
# Disc length: 4433 seconds
#
# Revision: 0
# Processed by: cddbd v1.5.2PL0 Copyright (c) Steve Scherf et al.
# Submitted via: CDex 1.70beta1
#
DISCID=70114f0a
DTITLE=The Jimmy Heath Big Band - Turn Up The Heath
DYEAR=2006
DGENRE=Jazz
TTITLE0=Big P
TTITLE1=Heritage Hum
TTITLE2=Gemini
TTITLE3=Like A Son
TTITLE4=I'm Glad There's You
TTITLE5=One For Juan
TTITLE6=Project S
TTITLE7=Sources Says
TTITLE8=No End
TTITLE9=Basic Birks
EXTD=YEAR: 2006
EXTT0=
EXTT1=
EXTT2=
EXTT3=
EXTT4=
EXTT5=
EXTT6=
EXTT7=
EXTT8=
EXTT9=
PLAYORDER=
